<svg width="40" height="40" viewBox="0 0 40 40" fill="none" xmlns="http://www.w3.org/2000/svg">
<rect width="40" height="40" rx="20" fill="url(#paint0_linear_331_4318)"/>
<path fill-rule="evenodd" clip-rule="evenodd" d="M5.74219 17.7302C5.74219 17.0303 6.30957 16.4629 7.00947 16.4629H17.5452C18.2451 16.4629 18.8125 17.0303 18.8125 17.7302V28.2659C18.8125 28.9658 18.2451 29.5332 17.5452 29.5332H17.245V22.8895C17.245 22.5396 16.9613 22.2559 16.6114 22.2559H13.4085C13.0586 22.2559 12.7749 22.5396 12.7749 22.8895V29.5332H7.00947C6.30957 29.5332 5.74219 28.9658 5.74219 28.2659V17.7302ZM7.19937 22.8794C7.19937 22.5295 7.48306 22.2458 7.83301 22.2458H10.374C10.7239 22.2458 11.0076 22.5295 11.0076 22.8794V25.5144C11.0076 25.8644 10.7239 26.1481 10.374 26.1481H7.83302C7.48307 26.1481 7.19937 25.8644 7.19937 25.5144V22.8794Z" fill="white"/>
<rect x="13.1211" y="25.7959" width="1.12837" height="1.12837" rx="0.564187" fill="white"/>
<path d="M5.24135 13.0182C5.48113 12.7048 5.85322 12.521 6.24783 12.521L18.2787 12.521C18.6809 12.521 19.0593 12.712 19.2982 13.0356L19.6101 13.458C20.2277 14.2946 19.6304 15.478 18.5905 15.478H5.92463C4.87472 15.478 4.28017 14.2745 4.91815 13.4406L5.24135 13.0182Z" fill="white"/>
<path d="M27.9131 21.2803H25.9617L22.8117 15.8024H22.7671C22.7803 16.0302 22.7918 16.2597 22.8017 16.4908C22.8117 16.722 22.8216 16.9531 22.8315 17.1843C22.8414 17.4121 22.8513 17.6416 22.8612 17.8727V21.2803H21.4892V14.0392H23.4258L26.5709 19.4626H26.6055C26.5989 19.238 26.5907 19.0152 26.5808 18.7939C26.5709 18.5727 26.561 18.3515 26.5511 18.1302C26.5445 17.909 26.5379 17.6878 26.5313 17.4666V14.0392H27.9131V21.2803ZM36.3132 17.6498C36.3132 18.2078 36.2438 18.7163 36.1052 19.1753C35.9665 19.631 35.7551 20.0239 35.4712 20.3541C35.1905 20.6843 34.8339 20.9385 34.4014 21.1168C33.9688 21.2918 33.457 21.3793 32.866 21.3793C32.2749 21.3793 31.7631 21.2918 31.3306 21.1168C30.898 20.9385 30.5398 20.6843 30.2558 20.3541C29.9751 20.0239 29.7655 19.6293 29.6268 19.1704C29.4881 18.7114 29.4188 18.2012 29.4188 17.6399C29.4188 16.8904 29.5409 16.2383 29.7853 15.6835C30.0329 15.1255 30.4127 14.693 30.9244 14.3859C31.4362 14.0788 32.0867 13.9253 32.8759 13.9253C33.6617 13.9253 34.3073 14.0788 34.8125 14.3859C35.3209 14.693 35.6974 15.1255 35.9417 15.6835C36.1893 16.2416 36.3132 16.897 36.3132 17.6498ZM31.0285 17.6498C31.0285 18.155 31.0912 18.5909 31.2167 18.9574C31.3454 19.3206 31.5452 19.6013 31.816 19.7994C32.0867 19.9942 32.4367 20.0916 32.866 20.0916C33.3018 20.0916 33.6551 19.9942 33.9259 19.7994C34.1966 19.6013 34.3931 19.3206 34.5153 18.9574C34.6408 18.5909 34.7035 18.155 34.7035 17.6498C34.7035 16.8904 34.5615 16.2927 34.2775 15.8569C33.9936 15.421 33.5264 15.2031 32.8759 15.2031C32.4433 15.2031 32.09 15.3022 31.816 15.5003C31.5452 15.6951 31.3454 15.9758 31.2167 16.3423C31.0912 16.7055 31.0285 17.1413 31.0285 17.6498Z" fill="white"/>
<path d="M21.4454 22.6947H23.058C23.748 22.6947 24.2702 22.7916 24.6246 22.9854C24.979 23.1791 25.1562 23.5194 25.1562 24.0061C25.1562 24.2022 25.1243 24.3794 25.0605 24.5378C24.9991 24.6961 24.9093 24.826 24.7912 24.9276C24.673 25.0292 24.5289 25.0954 24.3588 25.1261V25.1615C24.5313 25.197 24.6872 25.2584 24.8266 25.3458C24.966 25.4309 25.0771 25.5561 25.1598 25.7215C25.2448 25.8846 25.2874 26.102 25.2874 26.3737C25.2874 26.6879 25.2106 26.9573 25.057 27.1818C24.9034 27.4063 24.6837 27.5787 24.3977 27.6993C24.1142 27.8174 23.7763 27.8765 23.3841 27.8765H21.4454V22.6947ZM22.5441 24.7469H23.1821C23.501 24.7469 23.722 24.6972 23.8448 24.598C23.9677 24.4964 24.0291 24.3475 24.0291 24.1514C24.0291 23.9529 23.9559 23.8112 23.8094 23.7261C23.6653 23.6387 23.4361 23.595 23.1218 23.595H22.5441V24.7469ZM22.5441 25.6188V26.9691H23.26C23.5908 26.9691 23.8212 26.9053 23.9512 26.7777C24.0811 26.6501 24.1461 26.4788 24.1461 26.2638C24.1461 26.1362 24.1178 26.024 24.061 25.9271C24.0043 25.8302 23.9086 25.7546 23.774 25.7003C23.6416 25.6459 23.4585 25.6188 23.2246 25.6188H22.5441ZM31.0256 25.2785C31.0256 25.6778 30.9759 26.0417 30.8767 26.3701C30.7775 26.6962 30.6262 26.9774 30.423 27.2137C30.2222 27.45 29.967 27.6319 29.6575 27.7595C29.3479 27.8847 28.9817 27.9474 28.5587 27.9474C28.1358 27.9474 27.7695 27.8847 27.46 27.7595C27.1505 27.6319 26.8941 27.45 26.6909 27.2137C26.4901 26.9774 26.34 26.695 26.2408 26.3666C26.1415 26.0382 26.0919 25.6731 26.0919 25.2714C26.0919 24.735 26.1793 24.2684 26.3542 23.8714C26.5314 23.4721 26.8031 23.1626 27.1694 22.9428C27.5356 22.7231 28.0011 22.6132 28.5658 22.6132C29.1282 22.6132 29.5901 22.7231 29.9516 22.9428C30.3155 23.1626 30.5849 23.4721 30.7597 23.8714C30.9369 24.2707 31.0256 24.7398 31.0256 25.2785ZM27.2438 25.2785C27.2438 25.64 27.2887 25.9519 27.3785 26.2142C27.4706 26.4741 27.6136 26.675 27.8073 26.8167C28.0011 26.9561 28.2516 27.0258 28.5587 27.0258C28.8706 27.0258 29.1235 26.9561 29.3172 26.8167C29.511 26.675 29.6516 26.4741 29.739 26.2142C29.8288 25.9519 29.8737 25.64 29.8737 25.2785C29.8737 24.735 29.7721 24.3074 29.5689 23.9955C29.3657 23.6836 29.0313 23.5276 28.5658 23.5276C28.2563 23.5276 28.0035 23.5985 27.8073 23.7403C27.6136 23.8797 27.4706 24.0805 27.3785 24.3428C27.2887 24.6027 27.2438 24.9146 27.2438 25.2785ZM36.2888 27.8765H35.0341L33.8291 25.9165L32.624 27.8765H31.4473L33.1663 25.2041L31.5572 22.6947H32.7693L33.8858 24.559L34.981 22.6947H36.1648L34.5379 25.2643L36.2888 27.8765Z" fill="white"/>
<defs>
<linearGradient id="paint0_linear_331_4318" x1="0" y1="20" x2="40" y2="20" gradientUnits="userSpaceOnUse">
<stop stop-color="#FFDE59"/>
<stop offset="1" stop-color="#FF914D"/>
</linearGradient>
</defs>
</svg>
