<svg width="54" height="54" viewBox="0 0 54 54" fill="none" xmlns="http://www.w3.org/2000/svg">
<rect width="54" height="54" rx="27" fill="url(#paint0_linear_1112_5024)"/>
<path fill-rule="evenodd" clip-rule="evenodd" d="M7.79688 24.0784C7.79688 23.1279 8.56739 22.3574 9.51786 22.3574H23.8256C24.776 22.3574 25.5465 23.1279 25.5465 24.0784V38.3861C25.5465 39.3366 24.776 40.1071 23.8256 40.1071H23.4187V31.0848C23.4187 30.6095 23.0334 30.2243 22.5582 30.2243H18.2087C17.7334 30.2243 17.3482 30.6095 17.3482 31.0848V40.1071H9.51786C8.56738 40.1071 7.79688 39.3366 7.79688 38.3861L7.79688 24.0784ZM9.77607 31.0711C9.77607 30.5958 10.1613 30.2106 10.6366 30.2106H14.0872C14.5625 30.2106 14.9477 30.5958 14.9477 31.0711V34.6494C14.9477 35.1247 14.5625 35.5099 14.0872 35.5099H10.6366C10.1613 35.5099 9.77607 35.1247 9.77607 34.6494V31.0711Z" fill="white"/>
<rect x="17.8213" y="35.0312" width="1.53235" height="1.53235" rx="0.766173" fill="white"/>
<path d="M7.11824 17.6786C7.44387 17.253 7.94917 17.0034 8.48506 17.0034L24.8231 17.0034C25.3694 17.0034 25.8832 17.2628 26.2076 17.7022L26.6311 18.2759C27.4699 19.412 26.6588 21.019 25.2466 21.019H8.04615C6.62037 21.019 5.81296 19.3847 6.67933 18.2523L7.11824 17.6786Z" fill="white"/>
<path d="M37.8621 28.9604H35.212L30.9343 21.5214H30.8737C30.8917 21.8308 30.9074 22.1425 30.9208 22.4564C30.9343 22.7702 30.9477 23.0841 30.9612 23.398C30.9746 23.7074 30.9881 24.019 31.0015 24.3329V28.9604H29.1384V19.127H31.7683L36.0393 26.492H36.0864C36.0775 26.1871 36.0662 25.8844 36.0528 25.584C36.0393 25.2835 36.0259 24.9831 36.0124 24.6827C36.0035 24.3822 35.9945 24.0818 35.9855 23.7814V19.127H37.8621V28.9604ZM49.2695 24.0302C49.2695 24.7881 49.1753 25.4786 48.987 26.1019C48.7987 26.7207 48.5117 27.2543 48.1261 27.7027C47.7449 28.1511 47.2606 28.4964 46.6732 28.7385C46.0858 28.9761 45.3908 29.095 44.5882 29.095C43.7855 29.095 43.0905 28.9761 42.5031 28.7385C41.9157 28.4964 41.4292 28.1511 41.0435 27.7027C40.6624 27.2543 40.3776 26.7184 40.1893 26.0951C40.001 25.4719 39.9068 24.7791 39.9068 24.0168C39.9068 22.9989 40.0727 22.1133 40.4045 21.36C40.7409 20.6022 41.2565 20.0148 41.9515 19.5978C42.6466 19.1808 43.5299 18.9723 44.6016 18.9723C45.6688 18.9723 46.5454 19.1808 47.2315 19.5978C47.922 20.0148 48.4332 20.6022 48.765 21.36C49.1013 22.1178 49.2695 23.0079 49.2695 24.0302ZM42.0928 24.0302C42.0928 24.7163 42.178 25.3082 42.3484 25.8059C42.5233 26.2992 42.7945 26.6803 43.1622 26.9494C43.5299 27.2139 44.0052 27.3462 44.5882 27.3462C45.1801 27.3462 45.6598 27.2139 46.0275 26.9494C46.3952 26.6803 46.662 26.2992 46.8279 25.8059C46.9983 25.3082 47.0835 24.7163 47.0835 24.0302C47.0835 22.9989 46.8907 22.1873 46.5051 21.5954C46.1195 21.0035 45.485 20.7076 44.6016 20.7076C44.0142 20.7076 43.5344 20.8421 43.1622 21.1111C42.7945 21.3757 42.5233 21.7568 42.3484 22.2546C42.178 22.7478 42.0928 23.3397 42.0928 24.0302Z" fill="white"/>
<path d="M29.2595 29.9548H31.4495C32.3865 29.9548 33.0956 30.0864 33.5769 30.3495C34.0583 30.6126 34.2989 31.0747 34.2989 31.7357C34.2989 32.002 34.2556 32.2427 34.169 32.4577C34.0855 32.6727 33.9636 32.8492 33.8032 32.9871C33.6427 33.1251 33.447 33.215 33.216 33.2567V33.3048C33.4502 33.3529 33.662 33.4364 33.8513 33.5551C34.0406 33.6706 34.1914 33.8407 34.3037 34.0653C34.4193 34.2867 34.477 34.5819 34.477 34.9509C34.477 35.3777 34.3727 35.7435 34.1642 36.0483C33.9556 36.3532 33.6572 36.5874 33.2689 36.751C32.8838 36.9115 32.425 36.9917 31.8923 36.9917H29.2595V29.9548ZM30.7516 32.7417H31.618C32.0512 32.7417 32.3512 32.6743 32.518 32.5395C32.6849 32.4015 32.7683 32.1994 32.7683 31.933C32.7683 31.6635 32.6689 31.471 32.4699 31.3555C32.2742 31.2367 31.9629 31.1774 31.5362 31.1774H30.7516V32.7417ZM30.7516 33.9257V35.7595H31.7239C32.1731 35.7595 32.486 35.6729 32.6624 35.4996C32.8389 35.3263 32.9272 35.0937 32.9272 34.8017C32.9272 34.6284 32.8887 34.476 32.8116 34.3445C32.7346 34.2129 32.6047 34.1102 32.4218 34.0364C32.2421 33.9626 31.9934 33.9257 31.6757 33.9257H30.7516ZM42.2695 33.4636C42.2695 34.0059 42.2022 34.5001 42.0674 34.9461C41.9326 35.3889 41.7273 35.7708 41.4513 36.0916C41.1786 36.4125 40.832 36.6596 40.4117 36.8329C39.9913 37.0029 39.4939 37.088 38.9196 37.088C38.3452 37.088 37.8478 37.0029 37.4275 36.8329C37.0071 36.6596 36.659 36.4125 36.383 36.0916C36.1103 35.7708 35.9065 35.3873 35.7718 34.9413C35.637 34.4953 35.5696 33.9995 35.5696 33.454C35.5696 32.7256 35.6883 32.0919 35.9258 31.5528C36.1664 31.0105 36.5354 30.5902 37.0328 30.2918C37.5302 29.9933 38.1623 29.8441 38.9292 29.8441C39.6929 29.8441 40.3202 29.9933 40.8112 30.2918C41.3053 30.5902 41.6711 31.0105 41.9086 31.5528C42.1492 32.0951 42.2695 32.732 42.2695 33.4636ZM37.1339 33.4636C37.1339 33.9546 37.1949 34.3781 37.3168 34.7343C37.4419 35.0873 37.6361 35.36 37.8992 35.5526C38.1623 35.7419 38.5024 35.8365 38.9196 35.8365C39.3431 35.8365 39.6865 35.7419 39.9496 35.5526C40.2127 35.36 40.4036 35.0873 40.5224 34.7343C40.6443 34.3781 40.7053 33.9546 40.7053 33.4636C40.7053 32.7256 40.5673 32.1448 40.2913 31.7213C40.0154 31.2977 39.5613 31.0859 38.9292 31.0859C38.5088 31.0859 38.1655 31.1822 37.8992 31.3747C37.6361 31.564 37.4419 31.8368 37.3168 32.193C37.1949 32.5459 37.1339 32.9695 37.1339 33.4636ZM49.4171 36.9917H47.7133L46.0768 34.33L44.4403 36.9917H42.8423L45.1767 33.3626L42.9915 29.9548H44.6376L46.1538 32.4866L47.6411 29.9548H49.2487L47.0394 33.4444L49.4171 36.9917Z" fill="white"/>
<defs>
<linearGradient id="paint0_linear_1112_5024" x1="0" y1="27" x2="54" y2="27" gradientUnits="userSpaceOnUse">
<stop stop-color="#FFDE59"/>
<stop offset="1" stop-color="#FF914D"/>
</linearGradient>
</defs>
</svg>
