<svg width="80" height="19" viewBox="0 0 80 19" fill="none" xmlns="http://www.w3.org/2000/svg">
<path d="M19.128 15.624H18.144L17.928 15.864H21.6C21.584 15.88 21.568 15.896 21.552 15.912C21.536 15.928 21.512 15.952 21.48 15.984H15.816C15.736 16.064 15.648 16.144 15.552 16.224C15.472 16.304 15.384 16.384 15.288 16.464H17.04L16.728 16.704H19.992L19.8 16.824H18.384C18.368 16.84 18.336 16.856 18.288 16.872C18.256 16.888 18.224 16.912 18.192 16.944H16.584L15.912 17.304H16.848C16.64 17.4 16.432 17.488 16.224 17.568C16.016 17.632 15.8 17.704 15.576 17.784H14.712C14.168 17.944 13.576 18.064 12.936 18.144H13.056C12.8 18.176 12.536 18.2 12.264 18.216C11.992 18.232 11.72 18.24 11.448 18.24C11.144 18.24 10.84 18.232 10.536 18.216C10.248 18.2 9.968 18.176 9.696 18.144H9.6C8.912 18.064 8.296 17.944 7.752 17.784H8.616C8.376 17.704 8.152 17.632 7.944 17.568C7.736 17.488 7.528 17.4 7.32 17.304H6.384C6.272 17.24 6.16 17.184 6.048 17.136C5.936 17.072 5.824 17.008 5.712 16.944H7.344L7.152 16.824H8.568C8.552 16.792 8.528 16.768 8.496 16.752C8.464 16.736 8.432 16.72 8.4 16.704H5.136C5.072 16.672 5.016 16.632 4.968 16.584C4.92 16.536 4.872 16.496 4.824 16.464H3.048C2.968 16.384 2.888 16.304 2.808 16.224C2.712 16.144 2.624 16.064 2.544 15.984H8.208C8.192 15.952 8.176 15.928 8.16 15.912C8.144 15.896 8.128 15.88 8.112 15.864H4.44C4.376 15.8 4.312 15.72 4.248 15.624H5.232C5.216 15.592 5.2 15.568 5.184 15.552C5.168 15.536 5.152 15.52 5.136 15.504H8.136L7.92 15.144H6.432L6.36 15.024H2.976C2.96 14.96 2.936 14.904 2.904 14.856C2.872 14.792 2.84 14.728 2.808 14.664H4.416L4.272 14.304H3.696L3.648 14.184H3.912C3.896 14.12 3.88 14.064 3.864 14.016C3.848 13.952 3.832 13.888 3.816 13.824H3.624C3.624 13.76 3.616 13.704 3.6 13.656C3.6 13.592 3.592 13.528 3.576 13.464H3.384C3.384 13.4 3.376 13.344 3.36 13.296C3.36 13.248 3.36 13.192 3.36 13.128V13.104H3.336C3.336 13.072 3.336 13.048 3.336 13.032C3.352 13.016 3.36 13 3.36 12.984H3.912C3.992 12.728 4.16 12.6 4.416 12.6H8.976C9.232 12.6 9.424 12.632 9.552 12.696C9.68 12.76 9.824 12.856 9.984 12.984H9.432L9.456 13.008C9.488 13.024 9.512 13.04 9.528 13.056C9.56 13.072 9.584 13.088 9.6 13.104H9.624C9.832 13.264 10.088 13.384 10.392 13.464H10.608C10.816 13.528 11.096 13.56 11.448 13.56C11.656 13.56 11.848 13.552 12.024 13.536C12.2 13.52 12.352 13.496 12.48 13.464H12.408C12.776 13.384 13.008 13.264 13.104 13.104H13.056C13.088 13.04 13.104 13 13.104 12.984H13.344L13.368 12.888C13.368 12.744 13.312 12.616 13.2 12.504H13.008C12.864 12.36 12.608 12.24 12.24 12.144H12.168C12.024 12.096 11.856 12.056 11.664 12.024C11.472 11.976 11.248 11.936 10.992 11.904H10.848L9.864 11.76C9.752 11.744 9.64 11.728 9.528 11.712C9.432 11.696 9.328 11.68 9.216 11.664C8.56 11.552 7.928 11.392 7.32 11.184H6.888C6.664 11.104 6.456 11.024 6.264 10.944H5.928C5.848 10.912 5.768 10.88 5.688 10.848C5.608 10.8 5.528 10.752 5.448 10.704H3.36C3.248 10.64 3.144 10.584 3.048 10.536C2.952 10.472 2.856 10.408 2.76 10.344H7.224C7.144 10.28 7.064 10.224 6.984 10.176C6.92 10.112 6.848 10.048 6.768 9.984H1.992C1.944 9.952 1.904 9.912 1.872 9.864C1.824 9.816 1.784 9.776 1.752 9.744H3C2.856 9.584 2.72 9.424 2.592 9.264H2.952L2.808 9.024H0.504C0.488 8.992 0.472 8.968 0.456 8.952C0.44 8.936 0.432 8.92 0.432 8.904H5.904C5.872 8.84 5.84 8.784 5.808 8.736C5.776 8.672 5.744 8.608 5.712 8.544H1.512L1.368 8.184H4.752L4.704 8.064H3.696L3.648 7.944H4.128C4.128 7.912 4.12 7.888 4.104 7.872C4.104 7.856 4.104 7.84 4.104 7.824H4.008L3.936 7.584H3.792L3.768 7.344H3.72V7.224H2.952C2.936 7.192 2.928 7.152 2.928 7.104C2.928 7.056 2.928 7.016 2.928 6.984H2.232L2.208 6.744H4.944C4.928 6.712 4.92 6.672 4.92 6.624C4.92 6.576 4.92 6.536 4.92 6.504H5.304V6.48C5.304 6.4 5.304 6.32 5.304 6.24C5.304 6.16 5.312 6.088 5.328 6.024H4.296C4.312 5.96 4.32 5.904 4.32 5.856C4.32 5.792 4.328 5.728 4.344 5.664H6.024C6.024 5.632 6.024 5.608 6.024 5.592C6.04 5.576 6.048 5.56 6.048 5.544H4.344C4.376 5.448 4.392 5.368 4.392 5.304H4.128L4.2 5.064H3.792C3.84 4.888 3.896 4.728 3.96 4.584H4.152L4.248 4.344H4.512L4.728 3.984H4.488C4.536 3.92 4.576 3.864 4.608 3.816C4.656 3.752 4.696 3.688 4.728 3.624H4.536L4.824 3.264H5.328C5.344 3.232 5.36 3.208 5.376 3.192C5.392 3.176 5.408 3.16 5.424 3.144H4.752C4.816 3.08 4.88 3.024 4.944 2.976C5.008 2.912 5.072 2.848 5.136 2.784H5.52C5.616 2.704 5.712 2.624 5.808 2.544C5.904 2.448 6.008 2.368 6.12 2.304H6.552C6.648 2.24 6.744 2.184 6.84 2.136C6.936 2.072 7.04 2.008 7.152 1.944H7.08C7.112 1.912 7.152 1.888 7.2 1.872C7.248 1.856 7.288 1.84 7.32 1.824H6.984C7.016 1.792 7.056 1.768 7.104 1.752C7.152 1.736 7.2 1.72 7.248 1.704H7.008C7.232 1.608 7.464 1.52 7.704 1.44C7.96 1.36 8.216 1.288 8.472 1.224H8.832C9.2 1.144 9.584 1.08 9.984 1.032C10.4 0.983999 10.832 0.959999 11.28 0.959999C12.128 0.959999 12.928 1.048 13.68 1.224H13.344C13.856 1.336 14.352 1.496 14.832 1.704H15.048C15.096 1.72 15.144 1.736 15.192 1.752C15.24 1.768 15.288 1.792 15.336 1.824H15.672C15.704 1.84 15.744 1.856 15.792 1.872C15.84 1.888 15.88 1.912 15.912 1.944H15.984C16.096 2.008 16.2 2.072 16.296 2.136C16.408 2.184 16.512 2.24 16.608 2.304H16.2C16.328 2.368 16.44 2.448 16.536 2.544C16.648 2.624 16.752 2.704 16.848 2.784H16.488L16.872 3.144H17.544L17.664 3.264H17.16C17.224 3.328 17.28 3.392 17.328 3.456C17.392 3.504 17.448 3.56 17.496 3.624H17.688L17.976 3.984H18.192L18.408 4.344H18.144C18.192 4.424 18.232 4.504 18.264 4.584H18.072C18.12 4.664 18.16 4.744 18.192 4.824C18.224 4.904 18.256 4.984 18.288 5.064H18.696C18.728 5.16 18.744 5.24 18.744 5.304H19.032C19.048 5.336 19.056 5.376 19.056 5.424C19.056 5.472 19.064 5.512 19.08 5.544H20.784V5.664H19.248C19.264 5.728 19.272 5.816 19.272 5.928V6.024H18.384C18.32 6.312 18.16 6.456 17.904 6.456H13.104C12.88 6.456 12.696 6.424 12.552 6.36C12.424 6.296 12.288 6.2 12.144 6.072L12.072 6.024H12.96C12.88 5.96 12.768 5.896 12.624 5.832C12.48 5.752 12.296 5.696 12.072 5.664H11.208C10.872 5.712 10.64 5.832 10.512 6.024H11.544C11.496 6.12 11.472 6.216 11.472 6.312C11.472 6.392 11.48 6.456 11.496 6.504H11.136C11.152 6.584 11.216 6.664 11.328 6.744H8.616C8.712 6.824 8.88 6.904 9.12 6.984H9.816C9.944 7.032 10.096 7.08 10.272 7.128C10.464 7.16 10.664 7.192 10.872 7.224H11.64C11.768 7.24 11.904 7.256 12.048 7.272C12.192 7.288 12.344 7.312 12.504 7.344H12.528C12.8 7.376 13.064 7.416 13.32 7.464C13.576 7.496 13.816 7.536 14.04 7.584H14.184C14.376 7.616 14.552 7.656 14.712 7.704C14.888 7.736 15.056 7.776 15.216 7.824H15.312C15.392 7.84 15.464 7.856 15.528 7.872C15.592 7.888 15.656 7.912 15.72 7.944H15.264C15.328 7.96 15.384 7.976 15.432 7.992C15.496 8.008 15.56 8.032 15.624 8.064H16.632C16.68 8.08 16.728 8.096 16.776 8.112C16.84 8.128 16.896 8.152 16.944 8.184H13.56C13.88 8.312 14.136 8.432 14.328 8.544H18.528C18.624 8.608 18.72 8.672 18.816 8.736C18.912 8.784 19 8.84 19.08 8.904H13.608C13.64 8.92 13.672 8.936 13.704 8.952C13.736 8.968 13.76 8.992 13.776 9.024H16.08C16.128 9.056 16.176 9.096 16.224 9.144C16.272 9.192 16.312 9.232 16.344 9.264H15.984C16.144 9.408 16.28 9.568 16.392 9.744H15.144C15.176 9.776 15.208 9.816 15.24 9.864C15.272 9.912 15.296 9.952 15.312 9.984H20.064L20.28 10.344H15.816C15.848 10.408 15.88 10.472 15.912 10.536C15.944 10.584 15.968 10.64 15.984 10.704H18.048L18.12 10.944H18.456L18.528 11.184H18.96C18.992 11.248 19.008 11.328 19.008 11.424C19.024 11.504 19.04 11.584 19.056 11.664L19.08 11.904H19.224C19.24 11.936 19.248 11.976 19.248 12.024C19.248 12.072 19.248 12.112 19.248 12.144H19.32V12.504H19.536V12.576C19.536 12.64 19.528 12.704 19.512 12.768C19.512 12.832 19.512 12.904 19.512 12.984H19.272V13.104H19.32C19.32 13.168 19.312 13.232 19.296 13.296C19.296 13.344 19.288 13.4 19.272 13.464H19.344L19.272 13.824H19.464C19.448 13.888 19.432 13.952 19.416 14.016C19.4 14.064 19.376 14.12 19.344 14.184H19.08C19.08 14.2 19.072 14.216 19.056 14.232C19.056 14.248 19.056 14.272 19.056 14.304H19.632L19.488 14.664H17.88C17.864 14.728 17.832 14.792 17.784 14.856C17.752 14.904 17.72 14.96 17.688 15.024H21.072L21 15.144H22.464C22.432 15.208 22.392 15.272 22.344 15.336C22.312 15.384 22.272 15.44 22.224 15.504H19.224C19.208 15.52 19.192 15.536 19.176 15.552C19.16 15.568 19.144 15.592 19.128 15.624ZM12.888 5.664H13.608C13.56 5.648 13.504 5.64 13.44 5.64C13.392 5.64 13.336 5.64 13.272 5.64C13.208 5.64 13.144 5.64 13.08 5.64C13.016 5.64 12.952 5.648 12.888 5.664ZM37.9984 12.384V12.504H39.8704V12.744H39.7744V13.104H34.8064V13.224H35.6704V13.584H38.3104V13.824H36.9424V14.304H36.8704V14.424H35.2864V14.784H37.6384V14.904H37.7344V15.264H37.9744V15.744H33.3424V16.104H38.2384V16.344H36.6064V16.704H36.3904V16.944H36.9424V17.184H36.5824V17.424H37.4224L37.3504 17.664H38.4784C38.4464 17.712 38.4064 17.76 38.3584 17.808C38.3264 17.84 38.2864 17.872 38.2384 17.904H38.7904C38.7104 17.968 38.5984 18 38.4544 18H33.7504C33.6064 18 33.4944 17.968 33.4144 17.904H32.8624C32.7504 17.856 32.6704 17.776 32.6224 17.664H31.4944L31.4224 17.424H30.5824V17.184H30.9424V16.944H30.3904V16.704H30.6064V16.344H32.2384V16.104H27.8944V16.344H25.9024V16.704H27.2704V16.944H26.9344V17.184H28.1824V17.424H26.8384L26.7664 17.664H27.2944C27.2304 17.776 27.1584 17.856 27.0784 17.904H26.5024C26.4224 17.968 26.3104 18 26.1664 18H21.4624C21.3024 18 21.1824 17.968 21.1024 17.904H21.6784C21.5984 17.856 21.5264 17.776 21.4624 17.664H20.9104C20.8624 17.584 20.8384 17.504 20.8384 17.424H22.1824V17.184H20.9344V16.944H21.2704V16.704H19.9024V16.344H21.8944V16.104H23.0464V15.744H19.3504V15.264H20.7184V14.904H21.6784V14.784H21.0064V14.424H19.8784V14.304H20.1184V13.824H20.8864V13.584H21.2464V13.224H19.5184V13.104H23.9584V12.744H18.5344V12.504H23.6464V12.384H21.1504V12.024H22.5904V11.904H22.8784V11.784H22.7584V11.304H20.3824V10.944H21.1744V10.824H20.9584V10.464H21.0544V10.344H21.0784V10.104H21.1024V9.984H20.7904V9.864H19.8544V9.504H20.1664V9.144H19.6864V8.784H20.8864V8.304H20.6224V8.064H18.8704V7.944H21.6784V7.704H22.3504V7.584H15.8704V7.464H19.6864V7.344H21.0544V6.984H18.6064V6.504H17.9344V6.144H20.8144V5.664H21.0544V5.304H22.5904V5.184H21.2704V4.704H22.3504V4.464H21.0544V4.344H20.5984V4.104H19.9024V3.864H19.0624V3.384H20.5744V3.024H21.4864V2.664H21.0544V2.424H20.4544V2.304H20.7904V2.064H20.7184V1.848C20.7184 1.736 20.7424 1.648 20.7904 1.584H22.3264C22.3424 1.536 22.3664 1.496 22.3984 1.464C22.4304 1.416 22.4624 1.376 22.4944 1.344H26.1904C26.2864 1.248 26.4224 1.2 26.5984 1.2H35.8144C35.9744 1.2 36.1104 1.248 36.2224 1.344H39.9184C39.9504 1.376 39.9824 1.416 40.0144 1.464C40.0624 1.496 40.0944 1.536 40.1104 1.584H37.0144C37.0464 1.68 37.0624 1.768 37.0624 1.848V2.064H37.1824V2.304H37.5184V2.424H36.8704V2.664H36.5824V3.024H37.5184V3.384H35.2624V3.864H37.8544V4.104H35.9824V4.344H36.7504V4.464H36.3664V4.704H38.1664V5.184H35.5264V5.304H37.5664V5.664H37.2064V6.144H35.2864V6.504H34.4944V6.984H36.9424V7.344H35.5744V7.464H31.7584V7.584H38.2384V7.704H37.5664V7.944H34.7584V8.064H36.5104V8.304H36.7744V8.784H35.5744V9.144H36.0544V9.504H35.7424V9.864H36.6784V9.984H36.9904V10.104H36.9664V10.344H36.9424V10.464H36.8464V10.824H37.0624V10.944H36.2704V11.304H38.6464V11.784H38.7664V11.904H38.4784V12.024H37.0384V12.384H37.9984ZM23.9344 6.144V6.504H24.6064V6.888H28.4944V6.504H29.2864V6.144H31.2064V5.664H31.5664V5.304H29.5264V5.184H32.1664V4.704H30.3664V4.464H30.7504V4.344H29.9824V4.104H31.8544V3.864H29.2624V3.384H31.5184V3.024H30.5824V2.664H30.8704V2.424H31.5184V2.304H31.1824V2.064H31.0624V1.848C31.0624 1.768 31.0784 1.68 31.1104 1.584H34.2064C34.2384 1.536 34.2704 1.496 34.3024 1.464C34.3344 1.416 34.3664 1.376 34.3984 1.344H28.0144C28.0944 1.408 28.1584 1.488 28.2064 1.584H26.6704C26.7024 1.632 26.7184 1.72 26.7184 1.848V2.064H26.7904V2.304H26.4544V2.424H27.0544V2.664H27.4864V3.024H26.5744V3.384H25.0624V3.864H25.9024V4.104H26.5984V4.344H27.0544V4.464H28.3504V4.704H27.2704V5.184H28.5904V5.304H27.0544V5.664H26.8144V6.144H23.9344ZM33.8704 12.744V12.504H31.9984V12.384H31.0384V12.168H27.1504V12.384H29.6464V12.504H24.5344V12.744H29.9584V13.104H33.7744V12.744H33.8704ZM32.3104 13.584H29.6704V13.224H28.8064V13.104H25.5184V13.224H27.2464V13.584H26.8864V13.824H26.1184V14.304H25.8784V14.424H27.0064V14.784H27.6784V14.904H26.7184V15.264H25.3504V15.744H31.9744V15.264H31.7344V14.904H31.6384V14.784H29.2864V14.424H30.8704V14.304H30.9424V13.824H32.3104V13.584ZM48.7614 5.304H44.8494V5.784H46.4094V6.264H48.4734V6.624H46.1454V6.744H46.4334V7.224H45.8334V7.344H45.7854V7.464H45.1854V7.944H46.3134V8.064H46.3614V8.184H46.0974V8.544H45.9294V8.664H46.7214V9.144H44.8014V9.624H45.4974V9.984H45.8814V10.464H45.9294V10.944H45.7374V11.544H45.9534V11.784H45.8094V12.144H45.7854V12.264H45.5934V12.744H45.8094V12.984H45.7854V14.424H45.8094V14.904H46.2174V15.384H45.8814V15.624H45.7854V15.864H46.0734V16.344H45.6654V16.464H46.2654V16.704H46.4814V16.824H46.2894V17.184H46.1934V17.352C46.1934 17.384 46.1854 17.416 46.1694 17.448C46.1694 17.48 46.1614 17.512 46.1454 17.544H45.5454C45.5294 17.624 45.4814 17.704 45.4014 17.784H46.0734C46.0094 17.848 45.9614 17.888 45.9294 17.904H44.5614C44.4814 17.968 44.3694 18 44.2254 18H39.3294C39.1854 18 39.0734 17.968 38.9934 17.904H40.3614C40.2974 17.888 40.2494 17.848 40.2174 17.784H39.5454C39.4654 17.704 39.4174 17.624 39.4014 17.544H40.0254C40.0094 17.496 40.0014 17.432 40.0014 17.352V17.184H40.0974V16.824H40.2894V16.704H40.0734V16.464H39.4734V16.344H39.8814V15.864H39.5934V15.624H39.6894V15.384H40.0254V14.904H39.6174V14.424H39.5934V12.984H39.6174V12.744H39.4014V12.264H39.5934V12.144H39.6174V11.784H39.7614V11.544H39.5454V10.944H39.7374V10.464H39.6894V9.984H39.3054V9.624H38.6094V9.144H40.5294V8.664H39.7374V8.544H39.9054V8.184H40.1694V8.064H40.1214V7.944H38.9934V7.464H39.5934V7.344H39.6414V7.224H40.2414V6.744H39.9534V6.624H42.2814V6.264H40.2174V5.784H38.6574V5.304H42.5694V5.184H40.1214V4.824H40.0974V4.464H39.6654V4.344H41.1294V4.104H40.0254V3.624H40.1214V3.264H39.4494V2.784H39.5694V2.544H39.4974V2.304H39.6894V2.184H39.4734V1.848C39.4734 1.768 39.4894 1.68 39.5214 1.584H39.6414C39.7534 1.328 39.9534 1.2 40.2414 1.2H45.1374C45.4254 1.2 45.6254 1.328 45.7374 1.584H45.6174C45.6494 1.68 45.6654 1.768 45.6654 1.848V2.184H45.8814V2.304H45.6894V2.544H45.7614V2.784H45.6414V3.264H46.3134V3.624H46.2174V4.104H47.3214V4.344H45.8574V4.464H46.2894V4.824H46.3134V5.184H48.7614V5.304ZM60.5974 5.424V5.496C60.5974 5.64 60.5494 5.776 60.4534 5.904H63.7654C63.6534 6.064 63.4854 6.144 63.2614 6.144H56.3974V6.264H54.5734V6.624H53.7574V7.104H54.5734V7.464H54.3574V7.824H54.2614V7.92H60.6454C60.8054 7.92 60.9414 7.968 61.0534 8.064H61.1014C61.1814 8.128 61.2454 8.208 61.2934 8.304H61.1494C61.1974 8.368 61.2214 8.456 61.2214 8.568V8.784H61.1254V8.904H61.7494V9.384H61.1974V9.624H61.3414V9.984H61.4134V10.104H61.6294V10.464H61.2694V10.584H60.0454V11.064H59.7574V11.424H61.5814V11.904H60.9094V12.192C60.9094 12.272 60.9014 12.336 60.8854 12.384H60.8374C60.7734 12.56 60.6774 12.68 60.5494 12.744H60.0694C59.9894 12.808 59.8774 12.84 59.7334 12.84H53.3494V13.104H54.0694V13.344H55.1494V13.704H52.8934V13.944H54.9574V14.304H53.3974V14.424H54.5974V14.904H53.9254V15.384H54.2374V15.504H54.0934V15.984H54.4774V16.104H54.3094V16.224H53.9734V16.464H54.3094V16.704H53.9734V17.064H55.1014V17.184H55.8454V17.352C55.8454 17.368 55.8374 17.384 55.8214 17.4C55.8214 17.4 55.8214 17.408 55.8214 17.424H57.8374C57.8374 17.472 57.8294 17.512 57.8134 17.544H54.4534C54.4214 17.688 54.3334 17.808 54.1894 17.904H55.9174C55.8374 17.968 55.7254 18 55.5814 18H50.9974C50.8534 18 50.7414 17.968 50.6614 17.904H48.9094C48.7974 17.824 48.7094 17.704 48.6454 17.544H51.9814C51.9814 17.496 51.9734 17.456 51.9574 17.424H49.9654V17.184H49.2214V17.064H48.0934V16.704H48.4294V16.464H48.0934V16.224H48.4294V16.104H48.5974V15.984H48.2134V15.504H48.3574V15.384H48.0454V14.904H48.7174V14.424H47.5174V14.304H49.0774V13.944H47.0134V13.704H49.2694V13.344H48.1894V13.104H47.4694V12.744H47.9494V12.384H47.9974V11.904H48.6694V11.424H46.8454V11.064H47.1334V10.584H48.3574V10.464H48.7174V10.104H48.5014V9.984H48.4294V9.624H48.2854V9.384H48.8374V8.904H48.2134V8.784H48.3094V8.304H48.4294V8.064H48.3814V7.824H48.4774V7.464H48.6934V7.104H47.8774V6.624H48.6934V6.264H50.5174V5.904H47.2054V5.424H50.8534V5.064H47.3254V4.824H47.4214V4.584H49.4614V4.104H48.5734V3.624H48.9814V3.144H48.3574V2.664H48.4294V2.304H48.2134V1.944H48.3334V1.848C48.3334 1.784 48.3414 1.736 48.3574 1.704H47.3974C47.4134 1.624 47.4374 1.56 47.4694 1.512C47.5174 1.448 47.5654 1.392 47.6134 1.344H47.4214C47.5494 1.248 47.6854 1.2 47.8294 1.2H59.9254C60.0854 1.2 60.2214 1.248 60.3334 1.344H60.5254C60.6374 1.424 60.7174 1.544 60.7654 1.704H61.7014C61.7174 1.736 61.7254 1.784 61.7254 1.848V1.944H61.6054V2.304H61.8214V2.664H61.7494V3.144H62.3734V3.624H61.9654V4.104H62.8534V4.584H60.8134V4.824H60.7174V5.064H64.2454V5.424H60.5974ZM79.785 3.384H75.321V3.864H77.025V4.224H78.873V4.584H78.825V4.944H79.521V5.424H76.905V5.544H76.401V5.712C76.401 5.824 76.377 5.928 76.329 6.024H78.033C77.921 6.248 77.737 6.36 77.481 6.36H73.497V6.384H73.737V6.864H73.785V7.344H73.665V7.824H73.353V8.184H74.553V8.424H73.545V8.784H73.017V9.264H73.929V9.504H73.761V9.984H73.593V10.464H73.305V10.944H73.041V11.304H73.929V11.664H73.569V12.144H73.713V12.264H73.881V12.504H75.081V12.864H74.265V13.344H74.625V13.824H73.617V14.304H74.025V14.544H74.193V14.904H74.577V15.384H74.433V15.744H73.809V16.104H73.737V16.344H73.713V16.704H73.977V17.064H73.761V17.352C73.761 17.432 73.753 17.496 73.737 17.544H73.497C73.449 17.704 73.361 17.824 73.233 17.904H73.281C73.201 17.968 73.089 18 72.945 18H68.145C68.017 18 67.897 17.968 67.785 17.904H67.737C67.625 17.824 67.537 17.704 67.473 17.544H67.689C67.673 17.496 67.665 17.432 67.665 17.352V17.064H67.881V16.704H67.617V16.344H67.641V16.104H67.713V15.744H68.337V15.384H68.481V14.904H68.097V14.544H67.929V14.304H67.521V13.824H68.529V13.344H68.169V12.864H68.985V12.504H67.785V12.264H67.617V12.144H67.473V11.664H67.833V11.304H66.945V10.944H67.209V10.464H67.497V9.984H67.665V9.504H67.833V9.264H66.921V8.784H67.449V8.424H68.457V8.184H67.257V7.824H67.569V7.344H67.689V6.864H67.641V6.384H67.401V6.36H63.417C63.177 6.36 62.985 6.248 62.841 6.024H61.137C61.121 5.976 61.105 5.928 61.089 5.88C61.057 5.832 61.041 5.776 61.041 5.712V5.544H61.545V5.424H64.161V4.944H63.465V4.584H63.513V4.224H61.665V3.864H59.961V3.384H64.425V3.024H61.929V2.544H62.409V2.064H63.033V1.944H63.393V1.848C63.393 1.688 63.441 1.56 63.537 1.464H63.009C63.137 1.288 63.313 1.2 63.537 1.2H77.601C77.825 1.2 78.001 1.288 78.129 1.464H78.633C78.713 1.576 78.753 1.704 78.753 1.848V1.944H78.393V2.064H77.769V2.544H77.289V3.024H79.785V3.384Z" fill="white"/>
</svg>
