<svg width="40" height="40" viewBox="0 0 40 40" fill="none" xmlns="http://www.w3.org/2000/svg">
<rect width="40" height="40" rx="20" fill="url(#paint0_linear_331_4287)"/>
<g clip-path="url(#clip0_331_4287)">
<path d="M32.5768 9.26108C31.0059 7.69017 28.9262 6.83158 26.7066 6.83158C24.487 6.83158 22.4009 7.69653 20.83 9.26744L20.0095 10.0879L19.1764 9.25472C17.6055 7.68381 15.513 6.8125 13.2934 6.8125C11.0802 6.8125 8.99409 7.67745 7.42954 9.242C5.85863 10.8129 4.99367 12.899 5.00003 15.1186C5.00003 17.3382 5.87135 19.4179 7.44226 20.9889L19.3863 32.9329C19.5516 33.0982 19.7742 33.1873 19.9905 33.1873C20.2067 33.1873 20.4293 33.1046 20.5947 32.9392L32.5641 21.0143C34.135 19.4434 35 17.3573 35 15.1377C35.0063 12.9181 34.1477 10.832 32.5768 9.26108ZM31.3557 19.7995L19.9905 31.1203L8.65065 19.7805C7.4041 18.5339 6.71722 16.8803 6.71722 15.1186C6.71722 13.3569 7.39774 11.7033 8.64429 10.4631C9.88448 9.22292 11.5381 8.53605 13.2934 8.53605C15.0551 8.53605 16.7151 9.22292 17.9616 10.4695L19.399 11.9068C19.7361 12.2439 20.2767 12.2439 20.6137 11.9068L22.0384 10.4822C23.2849 9.23564 24.9449 8.54877 26.7002 8.54877C28.4556 8.54877 30.1092 9.23564 31.3557 10.4758C32.6023 11.7224 33.2828 13.376 33.2828 15.1377C33.2891 16.8994 32.6023 18.553 31.3557 19.7995Z" fill="white"/>
</g>
<defs>
<linearGradient id="paint0_linear_331_4287" x1="0" y1="20" x2="40" y2="20" gradientUnits="userSpaceOnUse">
<stop stop-color="#FFDE59"/>
<stop offset="1" stop-color="#FF914D"/>
</linearGradient>
<clipPath id="clip0_331_4287">
<rect width="30" height="30" fill="white" transform="translate(5 5)"/>
</clipPath>
</defs>
</svg>
