<svg width="55" height="55" viewBox="0 0 55 55" fill="none" xmlns="http://www.w3.org/2000/svg">
<rect x="0.941284" y="0.781067" width="54" height="54" rx="27" fill="url(#paint0_linear_2002_4)"/>
<path fill-rule="evenodd" clip-rule="evenodd" d="M8.7384 24.8597C8.7384 23.9092 9.50891 23.1387 10.4594 23.1387H24.7671C25.7176 23.1387 26.4881 23.9092 26.4881 24.8597V39.1674C26.4881 40.1179 25.7176 40.8884 24.7671 40.8884L24.3602 40.8884V31.8661C24.3602 31.3908 23.975 31.0056 23.4997 31.0056H19.1502C18.675 31.0056 18.2897 31.3908 18.2897 31.8661V40.8884H10.4594C9.50891 40.8884 8.7384 40.1179 8.7384 39.1674L8.7384 24.8597ZM10.7176 31.8524C10.7176 31.3771 11.1029 30.9919 11.5781 30.9919H15.0288C15.504 30.9919 15.8893 31.3771 15.8893 31.8524V35.4307C15.8893 35.906 15.504 36.2912 15.0288 36.2912H11.5781C11.1029 36.2912 10.7176 35.906 10.7176 35.4307V31.8524Z" fill="white"/>
<rect x="18.7626" y="35.8123" width="1.53235" height="1.53235" rx="0.766173" fill="white"/>
<path d="M8.06007 18.4598C8.3857 18.0342 8.89101 17.7845 9.42689 17.7845L25.7649 17.7845C26.3112 17.7845 26.825 18.0439 27.1495 18.4834L27.573 19.057C28.4117 20.1932 27.6006 21.8002 26.1884 21.8002H8.98799C7.5622 21.8002 6.75479 20.1658 7.62117 19.0334L8.06007 18.4598Z" fill="white"/>
<path d="M38.8044 29.7415H36.1543L31.8765 22.3024H31.816C31.8339 22.6118 31.8496 22.9235 31.8631 23.2374C31.8765 23.5512 31.89 23.8651 31.9034 24.179C31.9169 24.4884 31.9303 24.8 31.9438 25.1139V29.7415H30.0807V19.908H32.7106L36.9816 27.273H37.0287C37.0197 26.9681 37.0085 26.6654 36.9951 26.365C36.9816 26.0645 36.9681 25.7641 36.9547 25.4637C36.9457 25.1633 36.9368 24.8628 36.9278 24.5624V19.908H38.8044V29.7415ZM50.2118 24.8113C50.2118 25.5691 50.1176 26.2596 49.9293 26.8829C49.7409 27.5017 49.454 28.0353 49.0683 28.4837C48.6872 28.9321 48.2029 29.2774 47.6155 29.5195C47.0281 29.7571 46.3331 29.876 45.5304 29.876C44.7278 29.876 44.0328 29.7571 43.4453 29.5195C42.8579 29.2774 42.3714 28.9321 41.9858 28.4837C41.6046 28.0353 41.3199 27.4994 41.1316 26.8762C40.9432 26.2529 40.8491 25.5601 40.8491 24.7978C40.8491 23.7799 41.015 22.8943 41.3468 22.141C41.6831 21.3832 42.1988 20.7958 42.8938 20.3788C43.5888 19.9618 44.4722 19.7533 45.5439 19.7533C46.6111 19.7533 47.4877 19.9618 48.1738 20.3788C48.8643 20.7958 49.3755 21.3832 49.7073 22.141C50.0436 22.8988 50.2118 23.7889 50.2118 24.8113ZM43.0351 24.8113C43.0351 25.4973 43.1202 26.0892 43.2906 26.5869C43.4655 27.0802 43.7368 27.4613 44.1045 27.7304C44.4722 27.9949 44.9475 28.1272 45.5304 28.1272C46.1223 28.1272 46.6021 27.9949 46.9698 27.7304C47.3375 27.4613 47.6043 27.0802 47.7702 26.5869C47.9406 26.0892 48.0258 25.4973 48.0258 24.8113C48.0258 23.7799 47.833 22.9683 47.4473 22.3764C47.0617 21.7845 46.4272 21.4886 45.5439 21.4886C44.9565 21.4886 44.4767 21.6231 44.1045 21.8921C43.7368 22.1567 43.4655 22.5378 43.2906 23.0356C43.1202 23.5288 43.0351 24.1207 43.0351 24.8113Z" fill="white"/>
<path d="M30.2015 30.736H32.3915C33.3285 30.736 34.0376 30.8676 34.519 31.1307C35.0003 31.3938 35.2409 31.8559 35.2409 32.5169C35.2409 32.7832 35.1976 33.0239 35.111 33.2389C35.0276 33.4539 34.9056 33.6303 34.7452 33.7683C34.5847 33.9063 34.389 33.9961 34.158 34.0379V34.086C34.3922 34.1341 34.604 34.2176 34.7933 34.3363C34.9826 34.4518 35.1334 34.6219 35.2458 34.8465C35.3613 35.0679 35.419 35.3631 35.419 35.7321C35.419 36.1589 35.3147 36.5247 35.1062 36.8295C34.8976 37.1343 34.5992 37.3686 34.2109 37.5322C33.8259 37.6927 33.367 37.7729 32.8343 37.7729H30.2015V30.736ZM31.6936 33.5229H32.56C32.9932 33.5229 33.2932 33.4555 33.4601 33.3207C33.6269 33.1827 33.7103 32.9806 33.7103 32.7142C33.7103 32.4447 33.6109 32.2522 33.4119 32.1367C33.2162 32.0179 32.9049 31.9586 32.4782 31.9586H31.6936V33.5229ZM31.6936 34.7069V36.5407H32.6659C33.1151 36.5407 33.428 36.4541 33.6045 36.2808C33.7809 36.1075 33.8692 35.8749 33.8692 35.5829C33.8692 35.4096 33.8307 35.2572 33.7537 35.1256C33.6767 34.9941 33.5467 34.8914 33.3638 34.8176C33.1841 34.7438 32.9354 34.7069 32.6178 34.7069H31.6936ZM43.2116 34.2448C43.2116 34.7871 43.1442 35.2813 43.0094 35.7273C42.8746 36.1701 42.6693 36.5519 42.3933 36.8728C42.1206 37.1937 41.774 37.4408 41.3537 37.6141C40.9333 37.7841 40.436 37.8692 39.8616 37.8692C39.2872 37.8692 38.7899 37.7841 38.3695 37.6141C37.9492 37.4408 37.601 37.1937 37.325 36.8728C37.0523 36.5519 36.8485 36.1685 36.7138 35.7225C36.579 35.2765 36.5116 34.7807 36.5116 34.2352C36.5116 33.5068 36.6303 32.8731 36.8678 32.334C37.1085 31.7917 37.4775 31.3714 37.9748 31.0729C38.4722 30.7745 39.1043 30.6253 39.8712 30.6253C40.6349 30.6253 41.2622 30.7745 41.7532 31.0729C42.2473 31.3714 42.6131 31.7917 42.8506 32.334C43.0912 32.8763 43.2116 33.5132 43.2116 34.2448ZM38.0759 34.2448C38.0759 34.7358 38.1369 35.1593 38.2588 35.5155C38.3839 35.8685 38.5781 36.1412 38.8412 36.3337C39.1043 36.5231 39.4444 36.6177 39.8616 36.6177C40.2851 36.6177 40.6285 36.5231 40.8916 36.3337C41.1547 36.1412 41.3457 35.8685 41.4644 35.5155C41.5863 35.1593 41.6473 34.7358 41.6473 34.2448C41.6473 33.5068 41.5093 32.926 41.2333 32.5025C40.9574 32.0789 40.5033 31.8671 39.8712 31.8671C39.4509 31.8671 39.1075 31.9634 38.8412 32.1559C38.5781 32.3452 38.3839 32.618 38.2588 32.9741C38.1369 33.3271 38.0759 33.7507 38.0759 34.2448ZM50.3591 37.7729H48.6553L47.0188 35.1112L45.3823 37.7729H43.7843L46.1187 34.1438L43.9335 30.736H45.5796L47.0958 33.2678L48.5831 30.736H50.1907L47.9814 34.2256L50.3591 37.7729Z" fill="white"/>
<defs>
<linearGradient id="paint0_linear_2002_4" x1="0.941284" y1="27.7811" x2="54.9413" y2="27.7811" gradientUnits="userSpaceOnUse">
<stop stop-color="#FFDE59"/>
<stop offset="1" stop-color="#FF914D"/>
</linearGradient>
</defs>
</svg>
