<svg width="97" height="98" viewBox="0 0 97 98" fill="none" xmlns="http://www.w3.org/2000/svg">
<rect x="0.140625" y="0.570312" width="96.8594" height="96.8594" rx="48.4297" fill="url(#paint0_linear_342_4287)"/>
<path fill-rule="evenodd" clip-rule="evenodd" d="M14.0234 43.5067C14.0234 41.8119 15.3973 40.438 17.0921 40.438H42.6043C44.2991 40.438 45.673 41.8119 45.673 43.5067V69.0189C45.673 70.7137 44.2991 72.0876 42.6043 72.0876H41.8802V56C41.8802 55.1526 41.1933 54.4656 40.3459 54.4656H32.5902C31.7428 54.4656 31.0558 55.1526 31.0558 56V72.0876H17.0921C15.3973 72.0876 14.0234 70.7137 14.0234 69.0189V43.5067ZM17.5521 55.9758C17.5521 55.1284 18.239 54.4414 19.0864 54.4414H25.2393C26.0867 54.4414 26.7737 55.1284 26.7737 55.9758V62.3564C26.7737 63.2038 26.0867 63.8908 25.2393 63.8908H19.0864C18.239 63.8908 17.5521 63.2038 17.5521 62.3564V55.9758Z" fill="white"/>
<rect x="31.9062" y="63.0356" width="2.73234" height="2.73234" rx="1.36617" fill="white"/>
<path d="M12.8306 32.0937C13.4112 31.3348 14.3122 30.8896 15.2678 30.8896L44.4003 30.8896C45.3743 30.8896 46.2905 31.3521 46.8691 32.1357L47.6242 33.1586C49.1198 35.1845 47.6735 38.05 45.1554 38.05H14.4852C11.9428 38.05 10.5031 35.1357 12.048 33.1166L12.8306 32.0937Z" fill="white"/>
<path d="M67.1456 51.4634H62.4202L54.7925 38.1988H54.6845C54.7165 38.7505 54.7445 39.3062 54.7685 39.8659C54.7925 40.4255 54.8164 40.9852 54.8404 41.5449C54.8644 42.0966 54.8884 42.6523 54.9124 43.212V51.4634H51.5903V33.9292H56.2796L63.8954 47.0618H63.9793C63.9633 46.5181 63.9433 45.9784 63.9194 45.4427C63.8954 44.907 63.8714 44.3713 63.8474 43.8356C63.8314 43.2999 63.8154 42.7642 63.7994 42.2285V33.9292H67.1456V51.4634ZM87.4862 42.6723C87.4862 44.0235 87.3183 45.2548 86.9825 46.3662C86.6467 47.4696 86.1349 48.4211 85.4473 49.2206C84.7677 50.0202 83.9042 50.6358 82.8568 51.0676C81.8094 51.4914 80.5701 51.7032 79.1389 51.7032C77.7077 51.7032 76.4683 51.4914 75.4209 51.0676C74.3735 50.6358 73.506 50.0202 72.8184 49.2206C72.1388 48.4211 71.631 47.4656 71.2952 46.3542C70.9594 45.2429 70.7915 44.0075 70.7915 42.6483C70.7915 40.8333 71.0874 39.2542 71.679 37.911C72.2787 36.5597 73.1982 35.5123 74.4375 34.7687C75.6768 34.0251 77.2519 33.6533 79.1628 33.6533C81.0658 33.6533 82.6289 34.0251 83.8522 34.7687C85.0835 35.5123 85.995 36.5597 86.5867 37.911C87.1864 39.2622 87.4862 40.8493 87.4862 42.6723ZM74.6893 42.6723C74.6893 43.8956 74.8413 44.951 75.1451 45.8385C75.4569 46.718 75.9406 47.3977 76.5963 47.8774C77.2519 48.3491 78.0994 48.585 79.1389 48.585C80.1943 48.585 81.0498 48.3491 81.7054 47.8774C82.3611 47.3977 82.8368 46.718 83.1326 45.8385C83.4365 44.951 83.5884 43.8956 83.5884 42.6723C83.5884 40.8333 83.2446 39.3861 82.5569 38.3307C81.8693 37.2753 80.738 36.7476 79.1628 36.7476C78.1154 36.7476 77.2599 36.9875 76.5963 37.4672C75.9406 37.9389 75.4569 38.6186 75.1451 39.5061C74.8413 40.3856 74.6893 41.441 74.6893 42.6723Z" fill="white"/>
<path d="M51.6969 55.1522H55.6019C57.2726 55.1522 58.5371 55.3868 59.3953 55.856C60.2536 56.3251 60.6827 57.149 60.6827 58.3277C60.6827 58.8026 60.6055 59.2317 60.451 59.6151C60.3022 59.9984 60.0848 60.3131 59.7987 60.5591C59.5126 60.8052 59.1636 60.9654 58.7516 61.0397V61.1256C59.1693 61.2114 59.547 61.3602 59.8845 61.5719C60.2221 61.7778 60.491 62.0811 60.6913 62.4816C60.8973 62.8764 61.0002 63.4028 61.0002 64.0608C61.0002 64.8217 60.8143 65.474 60.4424 66.0176C60.0705 66.5611 59.5384 66.9788 58.8461 67.2706C58.1595 67.5567 57.3413 67.6997 56.3915 67.6997H51.6969V55.1522ZM54.3574 60.1214H55.9023C56.6747 60.1214 57.2097 60.0013 57.5072 59.761C57.8047 59.5149 57.9535 59.1545 57.9535 58.6796C57.9535 58.199 57.7761 57.8557 57.4214 57.6497C57.0724 57.438 56.5174 57.3321 55.7564 57.3321H54.3574V60.1214ZM54.3574 62.2327V65.5026H56.0911C56.8921 65.5026 57.45 65.3481 57.7647 65.0392C58.0794 64.7302 58.2367 64.3154 58.2367 63.7947C58.2367 63.4857 58.168 63.214 58.0307 62.9794C57.8934 62.7448 57.6617 62.5617 57.3355 62.4301C57.0151 62.2985 56.5717 62.2327 56.0053 62.2327H54.3574ZM74.8952 61.4088C74.8952 62.3757 74.775 63.2569 74.5347 64.0522C74.2944 64.8418 73.9282 65.5226 73.4362 66.0948C72.9498 66.667 72.3319 67.1075 71.5824 67.4165C70.8328 67.7197 69.946 67.8714 68.9218 67.8714C67.8976 67.8714 67.0108 67.7197 66.2613 67.4165C65.5117 67.1075 64.8909 66.667 64.3989 66.0948C63.9125 65.5226 63.5492 64.8389 63.3089 64.0436C63.0686 63.2483 62.9485 62.3643 62.9485 61.3916C62.9485 60.0928 63.1602 58.9628 63.5836 58.0016C64.0127 57.0346 64.6707 56.2851 65.5575 55.753C66.4444 55.2209 67.5715 54.9548 68.939 54.9548C70.3007 54.9548 71.4193 55.2209 72.2947 55.753C73.1758 56.2851 73.8281 57.0346 74.2515 58.0016C74.6806 58.9685 74.8952 60.1043 74.8952 61.4088ZM65.7377 61.4088C65.7377 62.2842 65.8465 63.0395 66.0639 63.6746C66.287 64.3039 66.6332 64.7903 67.1023 65.1336C67.5715 65.4711 68.178 65.6399 68.9218 65.6399C69.6771 65.6399 70.2893 65.4711 70.7585 65.1336C71.2276 64.7903 71.5681 64.3039 71.7798 63.6746C71.9972 63.0395 72.1059 62.2842 72.1059 61.4088C72.1059 60.0928 71.8599 59.0572 71.3678 58.302C70.8758 57.5467 70.0661 57.1691 68.939 57.1691C68.1895 57.1691 67.5772 57.3407 67.1023 57.684C66.6332 58.0216 66.287 58.5079 66.0639 59.143C65.8465 59.7724 65.7377 60.5277 65.7377 61.4088ZM87.6401 67.6997H84.6019L81.6839 62.9536L78.7659 67.6997H75.9165L80.079 61.2286L76.1825 55.1522H79.1177L81.8212 59.6666L84.4732 55.1522H87.3397L83.4004 61.3745L87.6401 67.6997Z" fill="white"/>
<defs>
<linearGradient id="paint0_linear_342_4287" x1="0.140625" y1="49" x2="97" y2="49" gradientUnits="userSpaceOnUse">
<stop stop-color="#FFDE59"/>
<stop offset="1" stop-color="#FF914D"/>
</linearGradient>
</defs>
</svg>
